<svg width="24" height="24" viewBox="0 0 24 24" fill="none" xmlns="http://www.w3.org/2000/svg">
<path d="M21.8298 11.693L2.22426 1.8633C2.14457 1.82345 2.05316 1.81408 1.96645 1.83517C1.76723 1.88439 1.64301 2.08595 1.69223 2.28751L3.71254 10.5422C3.74301 10.6664 3.83442 10.7672 3.95629 10.807L7.41801 11.9953L3.95864 13.1836C3.83676 13.2258 3.74535 13.3242 3.71723 13.4484L1.69223 21.7149C1.67113 21.8016 1.68051 21.893 1.72035 21.9703C1.81176 22.1555 2.03676 22.2305 2.22426 22.1391L21.8298 12.3656C21.9024 12.3305 21.961 12.2695 21.9985 12.1992C22.0899 12.0117 22.0149 11.7867 21.8298 11.693ZM4.00317 19.3664L5.18207 14.5477L12.1008 12.1734C12.1547 12.1547 12.1993 12.1125 12.218 12.0563C12.2508 11.9578 12.1993 11.8524 12.1008 11.8172L5.18207 9.44532L4.00785 4.64533L18.7266 12.0258L4.00317 19.3664Z" fill="#7E6D53"/>
</svg>
