<svg xmlns="http://www.w3.org/2000/svg" width="32" height="32" fill="none" viewBox="0 0 32 32"><path stroke="#2d2a22" stroke-linecap="round" stroke-linejoin="round" stroke-width="2" d="M20.667 30h-9.333m9.333 0V16.933a.934.934 0 0 0-.933-.933h-7.467a.933.933 0 0 0-.933.933V30m9.333 0h8.4a.933.933 0 0 0 .933-.933v-3.578a.933.933 0 0 0-.933-.933H21.6a.934.934 0 0 0-.933.933Zm-9.334 0v-7.623a.933.933 0 0 0-.933-.933H2.933a.933.933 0 0 0-.933.933v6.69a.933.933 0 0 0 .933.933Zm2.81-24.714 1.414-2.998a.485.485 0 0 1 .887 0l1.415 2.998 3.16.483c.407.063.569.585.275.884l-2.287 2.333.54 3.295c.068.423-.355.747-.719.546L16 11.272l-2.828 1.555c-.362.2-.787-.123-.719-.546l.54-3.295-2.287-2.333c-.295-.299-.132-.821.273-.884l3.164-.482Z"/></svg>