<svg aria-hidden="true" style="width:0;height:0;position:absolute;overflow:hidden" xmlns="http://www.w3.org/2000/svg"><defs><symbol id="icon-email" viewBox="0 0 32 32"><path stroke-linejoin="round" stroke-linecap="round" stroke-width="1.333" d="M25.148 27.035c.356-.296.698-.608 1.025-.937M23.879 16a7.874 7.874 0 0 0-7.21-7.837 7.871 7.871 0 1 0 7.212 7.838h-.001z"/><path stroke-linejoin="round" stroke-linecap="round" stroke-width="1.333" d="M30.333 16a14.323 14.323 0 0 0-5.702-11.467A14.33 14.33 0 0 0 12.039 2.2 14.33 14.33 0 0 0 1.735 17.385a14.32 14.32 0 0 0 2.132 6.224l-.889 5.413 5.413-.889a14.3 14.3 0 0 0 13.187 1.075"/><path stroke-linejoin="round" stroke-linecap="round" stroke-width="1.333" d="M23.43 18.624c-.963 2.348.605 3.611 1.953 3.918 1.645.373 4.95-1.346 4.95-6.542"/></symbol><symbol id="icon-map" viewBox="0 0 32 32"><path stroke-linejoin="round" stroke-linecap="round" stroke-width="1.333" d="M16 3a9.88 9.88 0 0 0-9.88 9.88v.72c.4 5.413 4.893 9.767 9.88 15.4 5.207-5.88 9.88-10.333 9.88-16.12A9.88 9.88 0 0 0 16 3zm0 5.133a4.763 4.763 0 0 1 4.392 2.936 4.749 4.749 0 0 1-1.034 5.181 4.757 4.757 0 0 1-7.315-.728 4.753 4.753 0 0 1 3.956-7.39z"/></symbol><symbol id="icon-phone" viewBox="0 0 32 32"><path stroke-linejoin="round" stroke-linecap="round" stroke-width="1.333" d="M27.147 20.187a41.182 41.182 0 0 1-4.2-.74 2.073 2.073 0 0 0-2 .387c-.353.36-1.373 1.367-2.433 2.407a19.126 19.126 0 0 1-8.733-8.74c1.033-1.06 2-2.073 2.393-2.427a2.079 2.079 0 0 0 .387-2 41.364 41.364 0 0 1-.74-4.207 1.321 1.321 0 0 0-.996-1.155 1.331 1.331 0 0 0-.537-.025h-5.68a1.001 1.001 0 0 0-.907.913c-.367 5.127 2.493 10.613 3.073 11.667v.04l.08.153a23.624 23.624 0 0 0 8.667 8.667l.293.167c1.333.707 6.633 3.373 11.587 3.007a.999.999 0 0 0 .927-.907v-5.673a1.317 1.317 0 0 0-.667-1.371 1.346 1.346 0 0 0-.513-.162z"/></symbol></defs></svg>