<svg width="36" height="28" fill="none" xmlns="http://www.w3.org/2000/svg"><path d="M10.497.145v10.58H9.239L3.392 2.418h-.104v8.307h-1.3V.145h1.258l5.868 8.327h.104V.145h1.279ZM14.396.145v10.58h-1.3V.145h1.3ZM25.636 3.45h-1.3a2.667 2.667 0 0 0-1.095-1.674 2.954 2.954 0 0 0-.896-.433 3.625 3.625 0 0 0-1.027-.144c-.65 0-1.238.161-1.765.485-.524.324-.942.8-1.252 1.431-.308.63-.461 1.404-.461 2.32 0 .916.153 1.689.46 2.32.311.63.729 1.106 1.253 1.43a3.308 3.308 0 0 0 1.765.486c.357 0 .699-.048 1.027-.145.329-.096.627-.24.896-.429a2.694 2.694 0 0 0 1.095-1.679h1.3A4.23 4.23 0 0 1 25.1 8.87c-.258.427-.58.79-.964 1.09a4.243 4.243 0 0 1-1.294.677 4.885 4.885 0 0 1-1.525.232c-.915 0-1.729-.22-2.441-.66-.713-.442-1.273-1.069-1.682-1.881-.409-.813-.613-1.777-.613-2.893 0-1.116.204-2.08.613-2.893.409-.813.97-1.44 1.682-1.88C19.589.22 20.403 0 21.318 0c.542 0 1.05.077 1.525.232.479.155.91.383 1.294.682.384.297.706.658.964 1.085.259.424.437.908.535 1.452ZM27.735 10.725V.145h6.476V1.28h-5.176v3.575h4.84v1.137h-4.84v3.595h5.26v1.137h-6.56ZM1.362 17.42l3.186 8.906h.125L7.86 17.42H9.22L5.281 28H3.94L0 17.42h1.362ZM12.192 17.42V28h-1.3V17.42h1.3ZM14.797 28V17.42h6.476v1.136h-5.177v3.575h4.841v1.137h-4.84v3.595h5.26V28h-6.56ZM25.564 28 22.63 17.42h1.32l2.242 8.617h.105l2.284-8.617h1.467l2.285 8.617h.104l2.243-8.617H36L33.066 28h-1.341l-2.368-8.431h-.084L26.905 28h-1.341Z" fill="#FCFCFB"/></svg>