<svg xmlns="http://www.w3.org/2000/svg" width="36" height="28" fill="none" viewBox="0 0 36 28"><path fill="#fcfcfb" d="M10.497.145v10.58H9.24L3.391 2.418h-.105v8.307h-1.3V.145h1.257l5.87 8.327h.105V.144ZM14.396.145v10.58h-1.3V.145ZM25.636 3.45h-1.3a2.667 2.667 0 0 0-1.095-1.674 3 3 0 0 0-.896-.434 3.6 3.6 0 0 0-1.027-.145q-.975.002-1.765.487-.787.485-1.252 1.431-.462.945-.461 2.32 0 1.374.46 2.32.467.945 1.253 1.43a3.3 3.3 0 0 0 1.766.486q.534 0 1.026-.145.493-.145.896-.429a2.694 2.694 0 0 0 1.095-1.679h1.3a4.2 4.2 0 0 1-.534 1.452q-.389.64-.965 1.09a4.2 4.2 0 0 1-1.294.677 4.9 4.9 0 0 1-1.525.232q-1.373 0-2.441-.66-1.069-.663-1.682-1.881-.613-1.22-.613-2.893 0-1.674.613-2.893.614-1.22 1.682-1.88Q19.945-.002 21.318 0q.813 0 1.525.232.718.233 1.294.682.576.445.964 1.085.388.636.535 1.452M27.735 10.725V.145h6.476v1.137h-5.176v3.575h4.841v1.137h-4.841v3.596h5.26v1.137ZM1.362 17.42l3.186 8.906h.126l3.185-8.906H9.22L5.281 28H3.94L0 17.42ZM12.192 17.42V28h-1.3V17.42ZM14.797 28V17.42h6.476v1.137h-5.176v3.575h4.841v1.137h-4.841v3.596h5.26V28ZM25.564 28l-2.935-10.58h1.32l2.243 8.617h.105l2.284-8.617h1.467l2.285 8.617h.105l2.242-8.617H36L33.066 28h-1.341l-2.368-8.431h-.084L26.905 28Z"/></svg>