<svg width="36" height="28" viewBox="0 0 36 28" fill="none" xmlns="http://www.w3.org/2000/svg">
<path d="M10.4968 0.14465V10.7247H9.23937L3.3924 2.41771H3.28761V10.7247H1.98828V0.14465H3.2457L9.11363 8.47232H9.21841V0.14465H10.4968Z" fill="#FCFCFB"/>
<path d="M14.3961 0.14465V10.7247H13.0967V0.14465H14.3961Z" fill="#FCFCFB"/>
<path d="M25.6355 3.45092H24.3362C24.2593 3.08241 24.1249 2.75867 23.9328 2.4797C23.7442 2.20074 23.5136 1.96654 23.2412 1.77712C22.9722 1.58426 22.6736 1.43961 22.3453 1.34317C22.017 1.24674 21.6747 1.19852 21.3184 1.19852C20.6687 1.19852 20.0802 1.36039 19.5528 1.68413C19.0289 2.00787 18.6115 2.48487 18.3006 3.11513C17.9932 3.74539 17.8396 4.51857 17.8396 5.43469C17.8396 6.3508 17.9932 7.12398 18.3006 7.75424C18.6115 8.3845 19.0289 8.8615 19.5528 9.18524C20.0802 9.50898 20.6687 9.67085 21.3184 9.67085C21.6747 9.67085 22.017 9.62263 22.3453 9.5262C22.6736 9.42977 22.9722 9.28684 23.2412 9.09742C23.5136 8.90455 23.7442 8.66863 23.9328 8.38967C24.1249 8.10726 24.2593 7.78352 24.3362 7.41845H25.6355C25.5377 7.95916 25.3596 8.44305 25.1011 8.87011C24.8426 9.29717 24.5213 9.66052 24.1371 9.96015C23.7529 10.2563 23.3215 10.4819 22.843 10.6369C22.368 10.7919 21.8598 10.8694 21.3184 10.8694C20.4033 10.8694 19.5894 10.649 18.8769 10.2081C18.1644 9.76728 17.6038 9.14047 17.1951 8.32767C16.7865 7.51488 16.5821 6.55055 16.5821 5.43469C16.5821 4.31882 16.7865 3.35449 17.1951 2.5417C17.6038 1.72891 18.1644 1.10209 18.8769 0.661255C19.5894 0.220418 20.4033 0 21.3184 0C21.8598 0 22.368 0.0774908 22.843 0.232472C23.3215 0.387454 23.7529 0.61476 24.1371 0.914391C24.5213 1.21058 24.8426 1.5722 25.1011 1.99926C25.3596 2.42288 25.5377 2.90676 25.6355 3.45092Z" fill="#FCFCFB"/>
<path d="M27.7351 10.7247V0.14465H34.2108V1.28118H29.0345V4.85609H33.8755V5.99262H29.0345V9.58819H34.2946V10.7247H27.7351Z" fill="#FCFCFB"/>
<path d="M1.3622 17.4199L4.54764 26.3262H4.67339L7.85883 17.4199H9.22103L5.28114 28H3.93989L0 17.4199H1.3622Z" fill="#FCFCFB"/>
<path d="M12.1917 17.4199V28H10.8923V17.4199H12.1917Z" fill="#FCFCFB"/>
<path d="M14.7969 28V17.4199H21.2725V18.5565H16.0962V22.1314H20.9372V23.2679H16.0962V26.8635H21.3564V28H14.7969Z" fill="#FCFCFB"/>
<path d="M25.5635 28L22.6295 17.4199H23.9498L26.1922 26.0369H26.297L28.5813 17.4199H30.0482L32.3325 26.0369H32.4373L34.6797 17.4199H36L33.066 28H31.7248L29.3567 19.569H29.2728L26.9047 28H25.5635Z" fill="#FCFCFB"/>
</svg>
