<svg aria-hidden="true" style="position: absolute; width: 0; height: 0; overflow: hidden;" version="1.1" xmlns="http://www.w3.org/2000/svg" xmlns:xlink="http://www.w3.org/1999/xlink">
<defs>
<symbol id="icon-email" viewBox="0 0 32 32">
<path stroke-linejoin="round" stroke-linecap="round" stroke-miterlimit="4" stroke-width="1.3333" d="M25.148 27.035c0.356-0.296 0.698-0.608 1.025-0.937M23.879 16c-0.002-1.972-0.744-3.872-2.079-5.323s-3.166-2.348-5.131-2.514c-1.965-0.166-3.921 0.412-5.48 1.62s-2.609 2.956-2.94 4.9c-0.332 1.944 0.078 3.941 1.149 5.598s2.724 2.85 4.632 3.346c1.909 0.495 3.934 0.257 5.675-0.669s3.071-2.472 3.727-4.332c0.297-0.843 0.449-1.731 0.449-2.625h-0.001z"></path>
<path stroke-linejoin="round" stroke-linecap="round" stroke-miterlimit="4" stroke-width="1.3333" d="M30.333 16c0.004-2.223-0.509-4.416-1.499-6.406s-2.428-3.723-4.203-5.061c-1.774-1.339-3.836-2.246-6.021-2.651s-4.435-0.296-6.571 0.318c-2.136 0.614-4.1 1.716-5.737 3.22s-2.901 3.367-3.694 5.444c-0.793 2.076-1.091 4.309-0.873 6.521s0.948 4.343 2.132 6.224l-0.889 5.413 5.413-0.889c1.949 1.228 4.166 1.967 6.462 2.154s4.603-0.183 6.725-1.079"></path>
<path stroke-linejoin="round" stroke-linecap="round" stroke-miterlimit="4" stroke-width="1.3333" d="M23.43 18.624c-0.963 2.348 0.605 3.611 1.953 3.918 1.645 0.373 4.95-1.346 4.95-6.542"></path>
</symbol>
<symbol id="icon-map" viewBox="0 0 32 32">
<path stroke-linejoin="round" stroke-linecap="round" stroke-miterlimit="4" stroke-width="1.3333" d="M16 3c-2.62 0-5.133 1.041-6.986 2.894s-2.894 4.366-2.894 6.986v0 0.72c0.4 5.413 4.893 9.767 9.88 15.4 5.207-5.88 9.88-10.333 9.88-16.12 0-2.62-1.041-5.133-2.894-6.986s-4.366-2.894-6.986-2.894zM16 8.133c0.94 0 1.86 0.279 2.641 0.802s1.391 1.265 1.751 2.134c0.36 0.869 0.453 1.825 0.269 2.747s-0.637 1.769-1.303 2.434c-0.665 0.665-1.513 1.117-2.436 1.299s-1.878 0.088-2.747-0.273c-0.869-0.361-1.61-0.971-2.132-1.754s-0.799-1.702-0.798-2.643c0.002-1.26 0.503-2.467 1.395-3.357s2.099-1.39 3.359-1.39z"></path>
</symbol>
<symbol id="icon-phone" viewBox="0 0 32 32">
<path stroke-linejoin="round" stroke-linecap="round" stroke-miterlimit="4" stroke-width="1.3333" d="M27.147 20.187c-1.412-0.174-2.814-0.421-4.2-0.74-0.339-0.113-0.7-0.137-1.051-0.069s-0.677 0.225-0.949 0.456c-0.353 0.36-1.373 1.367-2.433 2.407-3.798-1.867-6.869-4.941-8.733-8.74 1.033-1.060 2-2.073 2.393-2.427 0.231-0.272 0.388-0.599 0.456-0.949s0.044-0.712-0.069-1.051c-0.319-1.389-0.566-2.793-0.74-4.207-0.019-0.18-0.074-0.354-0.162-0.513s-0.208-0.297-0.351-0.407c-0.143-0.11-0.308-0.19-0.483-0.235s-0.358-0.053-0.537-0.025h-5.68c-0.234 0.021-0.454 0.124-0.62 0.291s-0.267 0.387-0.287 0.622c-0.367 5.127 2.493 10.613 3.073 11.667v0.040l0.080 0.153c2.076 3.601 5.066 6.591 8.667 8.667v0l0.293 0.167c1.333 0.707 6.633 3.373 11.587 3.007 0.237-0.016 0.46-0.117 0.63-0.283s0.275-0.387 0.297-0.624v-5.673c0.028-0.179 0.019-0.361-0.025-0.537s-0.125-0.34-0.235-0.483-0.249-0.263-0.407-0.351c-0.158-0.088-0.333-0.143-0.513-0.162z"></path>
</symbol>
</defs>
</svg>
