<svg width="24" height="24" viewBox="0 0 24 24" fill="none" xmlns="http://www.w3.org/2000/svg">
<path d="M20.36 15.1399C19.3011 15.0093 18.2497 14.824 17.21 14.5849C16.9561 14.5001 16.6847 14.4822 16.4219 14.533C16.1591 14.5838 15.9139 14.7016 15.71 14.8749C15.445 15.1449 14.68 15.8999 13.885 16.6799C11.0366 15.2797 8.73303 12.9744 7.33499 10.1249C8.10999 9.32994 8.83499 8.56994 9.12999 8.30494C9.30333 8.10101 9.4211 7.85579 9.4719 7.59301C9.52271 7.33023 9.50483 7.05878 9.41999 6.80494C9.1806 5.76357 8.99535 4.71049 8.86499 3.64994C8.85102 3.51489 8.8097 3.38409 8.74354 3.26553C8.67738 3.14697 8.58777 3.04312 8.48017 2.96031C8.37257 2.87751 8.24924 2.81748 8.11768 2.78389C7.98613 2.7503 7.84911 2.74385 7.71499 2.76494H3.45499C3.27915 2.78082 3.11454 2.85822 2.99016 2.98352C2.86577 3.10882 2.78958 3.27399 2.77499 3.44994C2.49999 7.29494 4.64499 11.4099 5.07999 12.1999V12.2299L5.13999 12.3449C6.69716 15.0457 8.93927 17.2878 11.64 18.8449V18.8449L11.86 18.9699C12.86 19.4999 16.835 21.4999 20.55 21.2249C20.7277 21.2126 20.8953 21.1374 21.0226 21.0128C21.15 20.8882 21.2288 20.7224 21.245 20.5449V16.2899C21.2661 16.1558 21.2596 16.0188 21.226 15.8872C21.1924 15.7557 21.1324 15.6324 21.0496 15.5248C20.9668 15.4172 20.863 15.3275 20.7444 15.2614C20.6258 15.1952 20.495 15.1539 20.36 15.1399Z" stroke="#FCFCFB" stroke-linecap="round" stroke-linejoin="round"/>
</svg>
