<svg width="32" height="32" viewBox="0 0 32 32" fill="none" xmlns="http://www.w3.org/2000/svg">
<path d="M10.6667 9.33333H21.3334M10.6667 9.33333H5.33341C4.62617 9.33333 3.94789 9.61428 3.4478 10.1144C2.9477 10.6145 2.66675 11.2928 2.66675 12V25.3333C2.66675 26.0406 2.9477 26.7189 3.4478 27.219C3.94789 27.719 4.62617 28 5.33341 28H26.6667C27.374 28 28.0523 27.719 28.5524 27.219C29.0525 26.7189 29.3334 26.0406 29.3334 25.3333V12C29.3334 11.2928 29.0525 10.6145 28.5524 10.1144C28.0523 9.61428 27.374 9.33333 26.6667 9.33333H21.3334H10.6667ZM10.6667 9.33333V4.8C10.6667 4.58783 10.751 4.38434 10.9011 4.23431C11.0511 4.08429 11.2546 4 11.4667 4H20.5334C20.7456 4 20.9491 4.08429 21.0991 4.23431C21.2491 4.38434 21.3334 4.58783 21.3334 4.8V9.33333H10.6667Z" stroke="#2D2A22" stroke-width="2"/>
</svg>
