<svg aria-hidden="true" style="position: absolute; width: 0; height: 0; overflow: hidden;" version="1.1" xmlns="http://www.w3.org/2000/svg" xmlns:xlink="http://www.w3.org/1999/xlink">
<defs>
<symbol id="icon-house" viewBox="0 0 32 32">
<path stroke-linejoin="round" stroke-linecap="round" stroke-miterlimit="4" stroke-width="2" d="M25.333 17.333v8.533c0 0.212-0.084 0.416-0.234 0.566s-0.354 0.234-0.566 0.234h-17.067c-0.212 0-0.416-0.084-0.566-0.234s-0.234-0.354-0.234-0.566v-8.533M4 12.667l12-7.333 12 7.333h-24z"></path>
</symbol>
<symbol id="icon-valise" viewBox="0 0 32 32">
<path stroke-linejoin="miter" stroke-linecap="butt" stroke-miterlimit="4" stroke-width="2" d="M10.667 9.333h10.667M10.667 9.333h-5.333c-0.707 0-1.386 0.281-1.886 0.781s-0.781 1.178-0.781 1.886v13.333c0 0.707 0.281 1.386 0.781 1.886s1.178 0.781 1.886 0.781h21.333c0.707 0 1.386-0.281 1.886-0.781s0.781-1.178 0.781-1.886v-13.333c0-0.707-0.281-1.386-0.781-1.886s-1.178-0.781-1.886-0.781h-16zM10.667 9.333v-4.533c0-0.212 0.084-0.416 0.234-0.566s0.354-0.234 0.566-0.234h9.067c0.212 0 0.416 0.084 0.566 0.234s0.234 0.354 0.234 0.566v4.533h-10.667z"></path>
</symbol>
<symbol id="icon-graphic" viewBox="0 0 32 32">
<path stroke-linejoin="round" stroke-linecap="round" stroke-miterlimit="4" stroke-width="2" d="M26.667 26.667h-21.333v-21.333"></path>
<path stroke-linejoin="round" stroke-linecap="round" stroke-miterlimit="4" stroke-width="2" d="M5.333 22l10.667-10 4 4 6-6"></path>
</symbol>
<symbol id="icon-award" viewBox="0 0 32 32">
<path stroke-linejoin="round" stroke-linecap="round" stroke-miterlimit="4" stroke-width="2" d="M20.667 30h-9.333M20.667 30v-13.067c0-0.247-0.098-0.485-0.273-0.66s-0.412-0.273-0.66-0.273h-7.467c-0.248 0-0.485 0.098-0.66 0.273s-0.273 0.413-0.273 0.66v13.067M20.667 30h8.4c0.247 0 0.485-0.098 0.66-0.273s0.273-0.412 0.273-0.66v-3.578c0-0.248-0.098-0.485-0.273-0.66s-0.412-0.273-0.66-0.273h-7.467c-0.247 0-0.485 0.098-0.66 0.273s-0.273 0.413-0.273 0.66v4.511zM11.333 30v-7.623c0-0.248-0.098-0.485-0.273-0.66s-0.412-0.273-0.66-0.273h-7.467c-0.248 0-0.485 0.098-0.66 0.273s-0.273 0.412-0.273 0.66v6.689c0 0.248 0.098 0.485 0.273 0.66s0.412 0.273 0.66 0.273h8.4zM14.143 5.286l1.414-2.998c0.038-0.086 0.1-0.159 0.179-0.21s0.171-0.078 0.264-0.078c0.094 0 0.186 0.027 0.264 0.078s0.141 0.124 0.179 0.21l1.416 2.998 3.161 0.484c0.406 0.062 0.568 0.585 0.274 0.884l-2.287 2.333 0.54 3.295c0.068 0.423-0.355 0.747-0.719 0.546l-2.828-1.556-2.828 1.556c-0.362 0.199-0.787-0.123-0.719-0.546l0.54-3.295-2.287-2.333c-0.296-0.299-0.132-0.821 0.272-0.884l3.164-0.484z"></path>
</symbol>
</defs>
</svg>
